<svg xmlns="http://www.w3.org/2000/svg"  viewBox="0 0 100 100" width="50px" height="50px"><path d="M51.026,98.994c-4.835,0-9.332-2.604-11.9-6.697 c-0.876-0.237-0.127-5.863-0.98-6.151c-10.322-3.489-20.55-5.338-25.989-15.098l0.927-3.054c-3.584,0-8.398,0.138-8.398-3.446 v-6.425C3.022,56.595,2,54.406,2,52.014V38.585c0-4.571,3.719-8.291,8.291-8.291h5.794C22.096,16.016,35.39,5.551,51.026,5.551 c18.703,0,30.664,10.466,36.637,24.744h4.099c4.571,0,8.291,3.719,8.291,8.291v13.429c0,2.391-1.022,4.58-2.686,6.108v6.426 c0,3.584-2.916,6.5-6.5,6.5h-0.972c-5.889,10.566-15.498,18.146-26.969,21.249C60.358,96.39,55.862,98.994,51.026,98.994z" opacity=".35"/><path fill="#f2f2f2" d="M49.026,96.994c-4.835,0-9.332-2.604-11.9-6.697c-11.471-3.103-21.081-10.683-26.969-21.249H9.186 c-3.584,0-6.5-2.916-6.5-6.5v-6.425C1.022,54.595,0,52.406,0,50.014V36.585c0-4.571,3.719-8.291,8.291-8.291h5.794 C20.096,14.016,33.39,5.017,49.026,5.017c15.699,0,29.006,9,34.979,23.277h5.757c4.571,0,8.291,3.719,8.291,8.291v13.429 c0,2.391-1.022,4.58-2.686,6.108v6.426c0,3.584-2.916,6.5-6.5,6.5h-0.972c-5.889,10.566-15.498,18.146-26.969,21.249 C58.358,94.39,53.862,96.994,49.026,96.994z"/><path fill="#de5147" d="M89.762,34.794h-7.162c-0.989,0-1.791,1.249-1.791,2.238c0,0-0.008,7.165-0.023,6.722 c-0.01-0.299-0.024-0.597-0.041-0.894c-1.014-17.503-13.925-31.344-31.718-31.344c-18.542,0-31.783,15.031-31.783,33.573v-8.505 c0-0.989-0.802-1.791-1.791-1.791H9.186c-0.989,0-1.791,0.802-1.791,1.791v13.429c0,0.989,0.802,1.791,1.791,1.791h0.895v10.743 h4.091c5.037,11.362,14.965,19.759,27.516,22.132c0.877,3.234,3.83,5.622,7.338,5.622c3.508,0,6.46-2.389,7.338-5.622 c12.551-2.373,22.479-10.769,27.516-22.132h4.986V50.014h0.895c0.989,0,1.791-0.802,1.791-1.791V36.585 C91.552,35.596,90.751,34.794,89.762,34.794z"/><polygon fill="#40396e" points="79.018,53.148 74.361,42.404 68.275,42.404 64.694,52.252 58.427,52.252 53.055,39.718 45.445,39.718 40.073,52.252 33.806,52.252 30.225,42.404 24.139,42.404 18.586,53.148 12.319,53.148 13.215,57.624 21.175,59.415 24.139,51.357 29.33,51.357 32.178,61.205 41.608,61.205 45.445,50.462 53.055,50.462 56.892,61.205 66.322,61.205 69.17,51.357 74.361,51.357 77.325,59.415 85.957,57.624 85.285,53.148"/><rect width="11.639" height="5.372" x="5.605" y="52.7" fill="#9aa2e6" transform="rotate(90 11.424 55.386)"/><path fill="#ff7575" d="M6.948,49.962V36.637c0-0.276,0.224-0.5,0.5-0.5h7.953c0.276,0,0.5,0.224,0.5,0.5v13.325 c0,0.276-0.224,0.5-0.5,0.5H7.448C7.172,50.462,6.948,50.238,6.948,49.962z"/><rect width="11.639" height="5.372" x="80.809" y="52.7" fill="#9aa2e6" transform="rotate(90 86.628 55.386)"/><path fill="#ff7575" d="M82.152,49.962V36.637c0-0.276,0.224-0.5,0.5-0.5H91.5c0.276,0,0.5,0.224,0.5,0.5v13.325 c0,0.276-0.224,0.5-0.5,0.5h-8.848C82.376,50.462,82.152,50.238,82.152,49.962z"/><path fill="none" stroke="#40396e" stroke-linecap="round" stroke-linejoin="round" stroke-miterlimit="10" stroke-width="3" d="M89.762,34.794h-7.162c-0.989,0-1.791,0.802-1.791,1.791c0,0-0.048,6.561-0.064,6.283c-1.011-17.506-13.924-31.351-31.719-31.351 c-15.764,0-27.697,10.865-30.918,25.515c-0.409,1.859-0.677,3.779-0.796,5.746c-0.046,0.764-0.069-6.193-0.069-6.193 c0-0.989-0.802-1.791-1.791-1.791H8.291c-0.989,0-1.791,0.802-1.791,1.791v13.429c0,0.989,0.802,1.791,1.791,1.791h0.895v10.743 h4.986c5.037,11.362,14.965,19.759,27.516,22.132c0.877,3.234,3.83,5.815,7.338,5.815c3.508,0,6.46-2.581,7.338-5.815 c12.551-2.373,22.479-10.769,27.516-22.132h4.986V51.805h0.895c0.989,0,1.791-0.802,1.791-1.791V36.585 C91.552,35.596,90.751,34.794,89.762,34.794z"/><path fill="#707cc0" d="M49,89c-3.456,0-6.267-2.811-6.267-6.267v-5.372c0-3.456,2.811-6.267,6.267-6.267 s6.267,2.811,6.267,6.267v5.372C55.267,86.188,52.456,89,49,89z M49,75.347c-1.481,0-2.686,1.205-2.686,2.686v4.029 c0,1.481,1.205,2.686,2.686,2.686s2.686-1.205,2.686-2.686v-4.029C51.686,76.551,50.481,75.347,49,75.347z"/><path fill="#9aa2e6" d="M49.026,78.216L49.026,78.216c-0.989,0-1.791-0.802-1.791-1.791v-9.848h3.581v9.848 C50.817,77.414,50.015,78.216,49.026,78.216z"/><circle cx="49.026" cy="64.786" r="4.476" fill="#9aa2e6"/><polygon fill="#40396e" points="62.567,23.603 52.719,30.766 45.445,30.766 35.597,23.603 28.435,28.975 31.12,35.242 42.759,36.137 45.445,33.451 52.607,33.451 55.293,36.137 67.044,35.242 69.73,28.975"/><path fill="#f2f2f2" d="M53.285,30.354c0.977,1.842,2.912,3.097,5.142,3.097c3.214,0,5.819-2.605,5.819-5.819 c0-1.505-0.576-2.872-1.514-3.905l-0.165-0.124L53.285,30.354z"/><path fill="#f2f2f2" d="M44.797,30.294l-9.2-6.691l-0.494,0.371c-0.81,1-1.296,2.271-1.296,3.658 c0,3.214,2.605,5.819,5.819,5.819C41.879,33.451,43.83,32.168,44.797,30.294z"/><path fill="#40396e" d="M37.729,25.153c-0.747,0.573-1.236,1.465-1.236,2.479c0,1.731,1.403,3.134,3.134,3.134 c1.364,0,2.512-0.876,2.943-2.092L37.729,25.153z"/><path fill="#40396e" d="M58.427,30.766c1.731,0,3.134-1.403,3.134-3.134c0-0.989-0.468-1.861-1.184-2.435l-4.872,3.543 C55.953,29.922,57.088,30.766,58.427,30.766z"/><polygon fill="#ffe385" points="49.053,17.336 50.362,19.989 53.289,20.414 51.171,22.479 51.671,25.394 49.053,24.017 46.434,25.394 46.935,22.479 44.816,20.414 47.744,19.989"/></svg>