<svg xmlns="http://www.w3.org/2000/svg"  viewBox="0 0 100 100" width="50px" height="50px"><path d="M47.176,97c-3.235,0-6.299-1.69-8.027-4.419l-14.3-17.246 c-0.038-0.056-0.074-0.112-0.109-0.17c-1.139-1.848-1.74-3.95-1.74-6.08V66h-3.5C13.159,66,8,60.841,8,54.5v-14 c0-5.411,3.757-9.962,8.8-11.18C21.671,14.092,35.655,3.75,52,3.75s30.329,10.342,35.2,25.57c5.042,1.218,8.8,5.769,8.8,11.18v14 C96,60.841,90.841,66,84.5,66H81v3.085c0,2.129-0.59,4.213-1.706,6.026c-0.036,0.058-0.073,0.115-0.11,0.171l-14.366,17.35 C63.111,95.329,60.06,97,56.824,97H47.176z" opacity=".35"/><path fill="#f2f2f2" d="M45.176,95c-3.235,0-6.299-1.69-8.027-4.419l-14.3-17.246c-0.038-0.056-0.074-0.112-0.109-0.17 c-1.139-1.848-1.74-3.95-1.74-6.08V64h-3.5C11.159,64,6,58.841,6,52.5v-14c0-5.411,3.757-9.962,8.8-11.18 C19.671,12.092,33.655,1.75,50,1.75s30.329,10.342,35.2,25.57c5.042,1.218,8.8,5.769,8.8,11.18v14C94,58.841,88.841,64,82.5,64H79 v3.085c0,2.129-0.59,4.213-1.706,6.026c-0.036,0.058-0.073,0.115-0.11,0.171l-14.366,17.35C61.111,93.329,58.06,95,54.824,95 H45.176z"/><polygon fill="#2785bd" points="85,34 16,34 13,37 13,56 28,56 28,69 43,88 57,88 72,69 72,56 87,56 87,37"/><path fill="#70bfff" d="M79,43.649c0,1.406-0.971,2.627-2.344,2.928C72.674,47.448,63.667,49,50.011,49 c-14.185,0-22.837-1.507-26.673-2.385C21.97,46.302,21,45.092,21,43.688v-8.969C21,19.963,32.963,8,47.719,8H50h2.281 C67.037,8,79,19.963,79,34.719V43.649z"/><path fill="#70bfff" d="M21,43v5.539C21,52.66,24.34,56,28.461,56H39c2.209,0,4,1.791,4,4v29h14V60c0-2.209,1.791-4,4-4 h10.539C75.66,56,79,52.66,79,48.539V43H21z"/><path fill="#008ccd" d="M50,59L50,59c-2.209,0-4-1.791-4-4V44h8v11C54,57.209,52.209,59,50,59z"/><path fill="#d9eeff" d="M21,34.719v8.969c0,1.404,0.97,2.613,2.338,2.927c3.468,0.794,10.974,2.102,22.865,2.345 C47.422,48.985,48,45,50,45c0.045,0-0.034,0,0.011,0c1.989,0,2.582,3.986,3.808,3.959c11.533-0.251,19.237-1.594,22.837-2.382 C78.029,46.276,79,45.055,79,43.649v-8.93c0-1.964-0.218-3.876-0.62-5.719H21.62C21.218,30.843,21,32.755,21,34.719z"/><path fill="#2b59a1" d="M73.311,56.238c-0.696-0.447-1.625-0.246-2.073,0.45l-7.804,12.14l-3.714-5.2 C59.439,63.234,58.984,63,58.5,63h-17c-0.484,0-0.939,0.234-1.221,0.628l-3.714,5.2l-7.804-12.14 c-0.448-0.695-1.376-0.898-2.073-0.45s-0.899,1.376-0.451,2.073l9,14c0.269,0.418,0.728,0.676,1.225,0.688c0.012,0,0.024,0,0.037,0 c0.484,0,0.938-0.233,1.221-0.628L42.272,66h15.456l4.551,6.372C62.562,72.767,63.016,73,63.5,73c0.012,0,0.024,0,0.037,0 c0.497-0.013,0.956-0.271,1.225-0.688l9-14C74.21,57.614,74.008,56.687,73.311,56.238z"/><path fill="none" stroke="#40396e" stroke-linecap="round" stroke-linejoin="round" stroke-miterlimit="10" stroke-width="3" d="M87.5,52.5v-14c0-2.761-2.239-5-5-5h-2.459C77.551,19.159,65.053,8.25,50,8.25S22.449,19.159,19.959,33.5H17.5 c-2.761,0-5,2.239-5,5v14c0,2.761,2.239,5,5,5h10v9.585c0,0.925,0.257,1.832,0.742,2.62l14.38,17.367 c0.546,0.887,1.513,1.428,2.555,1.428h9.647c1.042,0,2.009-0.54,2.555-1.428l14.38-17.367c0.485-0.788,0.742-1.695,0.742-2.62V57.5 h10C85.261,57.5,87.5,55.261,87.5,52.5z"/></svg>