<svg xmlns="http://www.w3.org/2000/svg"  viewBox="0 0 100 100" width="50px" height="50px"><path d="M35.511,99c-5.238,0-9.5-4.262-9.5-9.5V67h-2.534 c-5.238,0-9.5-4.262-9.5-9.5v-16c0-0.603,0.083-1.201,0.248-1.779l8.522-29.997C23.538,6.942,26.109,5,29,5h46 c2.889,0,5.46,1.941,6.251,4.72l8.529,30.003c0.164,0.576,0.248,1.175,0.248,1.777v16c0,5.238-4.262,9.5-9.5,9.5h-2.534v22.5 c0,5.238-4.262,9.5-9.5,9.5H35.511z" opacity=".35"/><path fill="#f2f2f2" d="M33.511,97c-5.238,0-9.5-4.262-9.5-9.5V65h-2.534c-5.238,0-9.5-4.262-9.5-9.5v-16 c0-0.603,0.083-1.201,0.248-1.779l8.522-29.997C21.538,4.942,24.109,3,27,3h46c2.889,0,5.46,1.941,6.251,4.72l8.529,30.003 c0.164,0.576,0.248,1.175,0.248,1.777v16c0,5.238-4.262,9.5-9.5,9.5h-2.534v22.5c0,5.238-4.262,9.5-9.5,9.5H33.511z"/><path fill="#ff7575" d="M81,39.5l-8-30H27l-8,30v16c0,1.657,1.343,3,3,3h8v29c0,1.657,1.343,3,3,3h34c1.657,0,3-1.343,3-3 v-29h8c1.657,0,3-1.343,3-3V39.5z"/><path fill="#40396e" d="M76,32H50H24c0,0-0.435,5.086,3,8c3.633,3.081,13,4,23,4s19.367-0.919,23-4 C76.435,37.086,76,32,76,32z"/><polygon fill="#dd4f2c" points="28.191,11 28.52,32 19.52,47 19.52,40 24.52,19 27.52,10"/><polygon fill="#dd4f2c" points="71.742,11 71.413,32 80.413,47 80.413,40 75.413,19 72.413,10"/><ellipse cx="38" cy="37" fill="#ffb789" rx="7" ry="3"/><circle cx="38" cy="37" r="3" fill="#fff"/><ellipse cx="62" cy="37" fill="#ffb789" rx="7" ry="3"/><circle cx="62" cy="37" r="3" fill="#fff"/><polygon fill="#f4a3be" points="56,59 44,59 47,38 53,38"/><rect width="8" height="33" x="31" y="57" fill="#dd4f2c"/><rect width="8" height="33" x="61" y="57" fill="#dd4f2c"/><rect width="22" height="4" x="39" y="67" fill="#dd4f2c"/><path fill="none" stroke="#40396e" stroke-linecap="round" stroke-linejoin="round" stroke-miterlimit="10" stroke-width="3" d="M81.528,39.5L73,9.5H27l-8.522,30v16c0,1.657,1.343,3,3,3h9.034v29c0,1.657,1.343,3,3,3h32.983c1.657,0,3-1.343,3-3v-29h9.034 c1.657,0,3-1.343,3-3V39.5z"/></svg>