<svg xmlns="http://www.w3.org/2000/svg"  viewBox="0 0 100 100" width="50px" height="50px"><path d="M17.5,98c-2.042,0-3.991-0.978-5.212-2.616 c-1.224-1.648-1.6-3.795-1.013-5.751c4.375-14.583,4.805-28.64,4.782-34.996C13.772,52.423,11,48.671,11,43.5 c0-2.662,0-4.685,25.271-35.276c2.207-2.671,5.473-4.204,8.961-4.204c2.313,0,4.584,0.698,6.487,1.98h0.561 c1.9-1.282,4.171-1.981,6.487-1.981c3.488,0,6.692,1.862,8.814,4.602C91.472,39.472,93,40.876,93,44.483 c0,5.171-2.772,7.94-5.056,10.153c-0.023,6.355,0.407,20.413,4.782,34.996c0.587,1.956,0.21,4.103-1.007,5.743 C90.491,97.022,88.542,98,86.5,98H17.5z" opacity=".35"/><path fill="#f2f2f2" d="M15.5,96c-2.042,0-3.991-0.978-5.212-2.616c-1.224-1.648-1.6-3.795-1.013-5.751 c4.375-14.583,4.805-28.64,4.782-34.996C11.772,50.423,9,46.671,9,41.5c0-2.662,0-4.685,25.271-35.276 c2.207-2.671,5.473-4.204,8.961-4.204c2.313,0,4.584,0.698,6.487,1.98h0.561c1.9-1.282,4.171-1.981,6.487-1.981 c3.488,0,6.754,1.533,8.962,4.206C91,36.814,91,38.838,91,41.5c0,5.171-2.772,8.923-5.056,11.137 c-0.023,6.355,0.407,20.413,4.782,34.996c0.587,1.956,0.21,4.103-1.007,5.743C88.491,95.022,86.542,96,84.5,96H15.5z"/><rect width="42" height="21" x="29" y="68" fill="#40396e"/><polygon fill="#40396e" points="26,35 74,35 57,14 43,14"/><path fill="#96c362" d="M71,72c0,0-10.119,12.637-15,15.135c-2.671,1.367-9.247,1.193-12,0C38.969,84.955,29,72,29,72V42h42 V72z"/><polygon fill="#40396e" points="57,78 53,75 46,75 42,78 39,70 60,70"/><polygon fill="#407845" points="72.782,57.183 63.708,62.677 55.07,55 43.879,55 36.204,62.674 27.171,58.158 25.829,60.841 36.796,66.325 45.121,58 53.93,58 63.292,66.322 74.218,59.816"/><polygon fill="#407845" points="72.782,65.183 63.708,70.677 54.955,64 43.893,64 36.204,70.674 27.171,66.158 25.829,68.841 36.796,74.325 45,67 54,67 63.292,74.322 74.218,67.816"/><path fill="#d9eeff" d="M71,89h13c0,0-5-21-5-50c0-2-8,0-8,0V89z"/><path fill="#407845" d="M66,50c0,0-4,4-7.5,4c-2.623,0-4.75-2.127-4.75-4.75c0-2.623,2.127-4.75,4.75-4.75 C62,44.5,66,50,66,50z"/><circle cx="39" cy="50" r="5" fill="#ffe385"/><path fill="#d9eeff" d="M29,89H16c0,0,5-21,5-50c0-2,8,0,8,0V89z"/><path fill="#40396e" d="M20.499,53c-0.329,0-0.077-0.655-0.353-0.876c-0.647-0.518-1.335-0.914-0.817-1.561l8-10 c0.519-0.646,1.462-0.752,2.108-0.233c0.647,0.518,0.092,0.647-0.426,1.294l0.007,1.875l-7.347,11.939 C21.375,55.808,20.939,53,20.499,53z" opacity=".35"/><path fill="#40396e" d="M79.501,53c-0.44,0-0.876,2.808-1.172,2.438l-7.338-11.924l0.004-2.025 c-0.518-0.647-1.078-0.642-0.431-1.16c0.646-0.519,1.591-0.412,2.108,0.233l8,10c0.518,0.647-0.553,0.841-1.199,1.359 C79.196,52.143,79.83,53,79.501,53z" opacity=".35"/><path fill="#40396e" d="M50,50c-22,0-21-10-21-10h42C71,40,72,50,50,50z"/><rect width="50" height="9" x="25" y="33" fill="#ff7575"/><circle cx="50" cy="35" r="4" fill="#ffc571"/><path fill="#d9eeff" d="M22,49l21-33c0,0,3,2,7.011,2C54,18,57,16,57,16l21,33l4-2l2-7l-8-12L59.517,9.427l-4.045-0.539 L52,11l-4.5-0.5L43,9l-3,2L15,41l2.449,5.461L22,49L22,49z"/><circle cx="40" cy="50" r="2" fill="#40396e"/><path fill="none" stroke="#40396e" stroke-linecap="round" stroke-linejoin="round" stroke-miterlimit="10" stroke-width="3" d="M52.5,10.5l1.092-0.873c2.178-1.742,5.349-1.414,7.126,0.736C67.877,19.03,84.5,37.577,84.5,41.5c0,5-5,8-5,8s-1,20,5,40h-69 c6-20,5-40,5-40s-5-3-5-8c0-3.923,16.623-22.469,23.783-31.137c1.776-2.15,4.948-2.478,7.126-0.736L47.5,10.5H52.5z"/><path fill="#407845" d="M50,80h-5.043l-5.039,4.199c0.825,0.745,1.624,1.403,2.37,1.93L46.043,83H50V80z"/><path fill="#407845" d="M53.957,83l3.687,3.073c0.73-0.546,1.516-1.214,2.332-1.962L55.043,80H50v3H53.957z"/></svg>